<?xml version="1.0" encoding="utf-8"?>
<!-- Generator: Adobe Illustrator 25.1.0, SVG Export Plug-In . SVG Version: 6.00 Build 0)  -->
<svg version="1.1" id="Warstwa_1" xmlns="http://www.w3.org/2000/svg" xmlns:xlink="http://www.w3.org/1999/xlink" x="0px" y="0px"
	 viewBox="0 0 74.5 45" style="enable-background:new 0 0 74.5 45;" xml:space="preserve">
<style type="text/css">
	.st0{fill-rule:evenodd;clip-rule:evenodd;fill:#FFFFFF;}
	.st1{fill:#FFFFFF;}
</style>
<g id="Stripe_logo_-_slate">
	<path id="Path_79" class="st0" d="M60.1,22.8c0-3.2-1.6-5.8-4.6-5.8s-4.8,2.6-4.8,5.8c0,3.8,2.2,5.7,5.3,5.7c1.2,0,2.4-0.3,3.5-0.8
		v-2.5c-1,0.5-2,0.7-3.1,0.7c-1.2,0-2.3-0.4-2.5-1.9h6.2C60.1,23.8,60.1,23.1,60.1,22.8z M53.8,21.6c0-1.4,0.9-2,1.7-2
		s1.6,0.6,1.6,2H53.8z"/>
	<path id="Path_80" class="st0" d="M45.8,17c-0.9,0-1.8,0.3-2.5,1l-0.2-0.8h-2.8V32l3.2-0.7v-3.6c0.6,0.5,1.4,0.8,2.2,0.8
		c2.3,0,4.3-1.8,4.3-5.8C50.1,19,48,17,45.8,17z M45,25.7c-0.6,0-1.1-0.2-1.5-0.6v-4.7c0.4-0.4,0.9-0.6,1.5-0.6c1.1,0,1.9,1.3,1.9,3
		C46.9,24.5,46.2,25.7,45,25.7z"/>
	<path id="Path_81" class="st0" d="M36,16.3l3.2-0.7V13L36,13.7V16.3z"/>
	<rect id="Rectangle_421" x="36" y="17.2" class="st1" width="3.2" height="11.1"/>
	<path id="Path_82" class="st0" d="M32.6,18.2l-0.2-0.9h-2.7v11.1h3.2v-7.5c0.6-0.7,1.6-1,2.4-0.7v-2.9
		C34.2,16.8,33.1,17.2,32.6,18.2z"/>
	<path id="Path_83" class="st0" d="M26.2,14.5l-3.1,0.7v10.2c0,1.8,1.4,3.2,3.1,3.3c0,0,0,0,0,0h0.2c0.8,0,1.5-0.1,2.2-0.4v-2.6
		c-0.4,0.2-2.4,0.7-2.4-1.1v-4.5h2.4v-2.7h-2.4L26.2,14.5z"/>
	<path id="Path_84" class="st0" d="M17.6,20.4c0-0.5,0.4-0.7,1.1-0.7c1.1,0,2.2,0.3,3.2,0.8v-3c-1-0.4-2.1-0.6-3.2-0.6
		c-2.6,0-4.3,1.3-4.3,3.6c0,3.5,4.8,2.9,4.8,4.4c0,0.6-0.5,0.8-1.2,0.8c-1.2-0.1-2.4-0.4-3.5-1v3c1.1,0.5,2.3,0.7,3.5,0.7
		c2.6,0,4.4-1.3,4.4-3.6C22.5,21.2,17.6,21.9,17.6,20.4z"/>
</g>
</svg>
