<?xml version="1.0" encoding="utf-8"?>
<!-- Generator: Adobe Illustrator 24.3.0, SVG Export Plug-In . SVG Version: 6.00 Build 0)  -->
<svg version="1.1" id="Warstwa_1" xmlns="http://www.w3.org/2000/svg" xmlns:xlink="http://www.w3.org/1999/xlink" x="0px" y="0px"
	 viewBox="0 0 93 45" style="enable-background:new 0 0 93 45;" xml:space="preserve">
<style type="text/css">
	.Dodaj_x0020_cień{fill:none;}
	.Okrągłe_x0020_narożniki_x0020__x0028_2_x0020_pkt_x002E__x0029_{fill:#FFFFFF;stroke:#000000;stroke-miterlimit:10;}
	.Aktywne_x0020_odbicie_x0020_X{fill:none;}
	.Miękka_x0020_faza{fill:url(#SVGID_1_);}
	.Zmierzch{fill:#FFFFFF;}
	.Foliage_GS{fill:#FFDD00;}
	.Pompadour_GS{fill-rule:evenodd;clip-rule:evenodd;fill:#51AEE2;}
	.st0{fill:#179BD7;}
	.st1{fill:#25305D;}
	.st2{fill:#1F3B77;}
</style>
<linearGradient id="SVGID_1_" gradientUnits="userSpaceOnUse" x1="23.766" y1="-27.5" x2="24.4731" y2="-26.7929">
	<stop  offset="0" style="stop-color:#E6E6EB"/>
	<stop  offset="0.1738" style="stop-color:#E2E2E6"/>
	<stop  offset="0.352" style="stop-color:#D5D4D8"/>
	<stop  offset="0.5323" style="stop-color:#C0BFC2"/>
	<stop  offset="0.7139" style="stop-color:#A4A2A4"/>
	<stop  offset="0.8949" style="stop-color:#828282"/>
	<stop  offset="1" style="stop-color:#6B6E6E"/>
</linearGradient>
<g>
	<g>
		<path class="st0" d="M14.1,17c0.2-1.5,0-2.5-0.9-3.4S10.9,12,8.9,12H3.1c-0.3,0-0.6,0.3-0.8,0.8L0,28.7c0,0.3,0.2,0.6,0.5,0.6h3.6
			L3.9,31c-0.1,0.3,0.1,0.5,0.4,0.5h3c0.3,0,0.6-0.2,0.8-0.5v-0.2l0.5-3.9v-0.1c0.1-0.3,0.4-0.6,0.8-0.6h0.3c2.9,0,5.2-1.2,5.8-4.8
			c0.3-1.5,0.2-2.7-0.6-3.6C14.8,17.4,14.3,17.2,14.1,17L14.1,17"/>
		<path class="st1" d="M14.1,17c0.2-1.5,0-2.5-0.9-3.4S10.9,12,8.9,12H3.1c-0.3,0-0.6,0.3-0.8,0.8L0,28.7c0,0.3,0.2,0.6,0.5,0.6h3.6
			l1-6L5,23.5c0.1-0.4,0.4-0.8,0.9-0.8h1.7c3.3,0,5.9-1.4,6.7-5.5C14,17.2,14.1,17.2,14.1,17"/>
		<path class="st2" d="M5.9,17c0.1-0.2,0.2-0.4,0.4-0.5c0,0,0.1-0.1,0.2-0.1H11c0.5,0,1.1,0.1,1.5,0.1c0.1,0,0.3,0,0.4,0.1
			c0.1,0.1,0.3,0.1,0.3,0.1c0.1,0,0.1,0,0.2,0c0.2,0.1,0.4,0.2,0.6,0.3c0.2-1.5,0-2.5-0.9-3.6c-0.8-1-2.4-1.4-4.3-1.4H3.1
			c-0.3,0-0.6,0.3-0.8,0.8L0,28.7c0,0.3,0.2,0.6,0.5,0.6h3.6l1-6L5.9,17z"/>
	</g>
	<path class="st2" d="M29.5,13.8h-5.6c-0.3,0-0.8,0.3-0.8,0.6l-2.3,14.4c-0.1,0.3,0.1,0.5,0.4,0.5H24c0.3,0,0.8-0.3,0.8-0.6l0.5-3.9
		c0.1-0.3,0.3-0.6,0.8-0.6h1.8c3.7,0,5.8-1.8,6.5-5.4c0.2-1.5,0-2.7-0.8-3.7C32.7,14.3,31.3,13.8,29.5,13.8z M30.2,19
		c-0.3,2-1.8,2-3.3,2H26l0.5-3.8c0-0.2,0.2-0.3,0.4-0.3h0.3c1,0,1.9,0,2.5,0.5C30.2,17.8,30.3,18.4,30.2,19z"/>
	<path class="st2" d="M46.2,19h-2.7c-0.2,0-0.4,0.1-0.4,0.3L43,20.1l-0.2-0.3c-0.5-0.9-1.8-1.2-3.2-1.2c-2.9,0-5.5,2.3-6,5.4
		c-0.3,1.6,0.1,3.1,1,4.1c0.8,1,2,1.4,3.4,1.4c2.4,0,3.8-1.5,3.8-1.5l-0.1,0.8c-0.1,0.3,0.1,0.5,0.4,0.5h2.5c0.3,0,0.8-0.3,0.8-0.6
		l1.4-9.3C46.8,19.2,46.5,19,46.2,19z M42.5,24.2c-0.3,1.5-1.4,2.6-3,2.6c-0.8,0-1.4-0.2-1.8-0.8s-0.5-1.2-0.4-1.8
		c0.2-1.5,1.5-2.6,3-2.6c0.8,0,1.4,0.3,1.8,0.8C42.4,22.8,42.6,23.4,42.5,24.2z"/>
	<path class="st2" d="M60.6,19h-2.7c-0.3,0-0.5,0.1-0.6,0.3l-3.8,5.5l-1.6-5.3c-0.1-0.3-0.4-0.5-0.8-0.5h-2.7
		c-0.3,0-0.5,0.3-0.4,0.6l2.9,8.7l-2.8,3.9c-0.2,0.3,0,0.8,0.3,0.8h2.7c0.3,0,0.5-0.1,0.6-0.3l9-13C61.2,19.4,61,19,60.6,19z"/>
	<path class="st0" d="M69.6,13.8H64c-0.3,0-0.8,0.3-0.8,0.6L61,28.8c-0.1,0.3,0.1,0.5,0.4,0.5h2.9c0.3,0,0.5-0.2,0.5-0.4l0.6-4.1
		c0.1-0.3,0.3-0.6,0.8-0.6h1.8c3.7,0,5.8-1.8,6.5-5.4c0.2-1.5,0-2.7-0.8-3.7C72.8,14.3,71.4,13.8,69.6,13.8z M70.2,19
		c-0.3,2-1.8,2-3.3,2H66l0.5-3.8c0-0.2,0.2-0.3,0.4-0.3h0.3c1,0,1.9,0,2.5,0.5C70.2,17.8,70.3,18.4,70.2,19z"/>
	<path class="st0" d="M86.3,19h-2.7c-0.2,0-0.4,0.1-0.4,0.3L83,20.1l-0.2-0.3c-0.5-0.9-1.8-1.2-3.2-1.2c-2.9,0-5.5,2.3-6,5.4
		c-0.3,1.6,0.1,3.1,1,4.1c0.8,1,2,1.4,3.4,1.4c2.4,0,3.8-1.5,3.8-1.5l-0.1,0.8c-0.1,0.3,0.1,0.5,0.4,0.5h2.5c0.3,0,0.8-0.3,0.8-0.6
		l1.4-9.3C86.8,19.2,86.6,19,86.3,19z M82.6,24.2c-0.3,1.5-1.4,2.6-3,2.6c-0.8,0-1.4-0.2-1.8-0.8c-0.4-0.5-0.5-1.2-0.4-1.8
		c0.2-1.5,1.5-2.6,3-2.6c0.8,0,1.4,0.3,1.8,0.8C82.6,22.8,82.7,23.4,82.6,24.2z"/>
	<path class="st0" d="M89.5,14.2l-2.3,14.6c-0.1,0.3,0.1,0.5,0.4,0.5h2.3c0.3,0,0.8-0.3,0.8-0.6l2.3-14.3c0.1-0.3-0.1-0.5-0.4-0.5
		h-2.6C89.7,13.8,89.6,13.9,89.5,14.2z"/>
</g>
</svg>
