<?xml version="1.0" encoding="iso-8859-1"?>
<!-- Generator: Adobe Illustrator 19.0.0, SVG Export Plug-In . SVG Version: 6.00 Build 0)  -->
<svg version="1.1" id="Layer_1" xmlns="http://www.w3.org/2000/svg" xmlns:xlink="http://www.w3.org/1999/xlink" x="0px" y="0px"
	 viewBox="0 0 512 512" style="enable-background:new 0 0 512 512;" xml:space="preserve">
<circle style="fill:#E8E8E8;" cx="256" cy="256" r="256"/>
<path style="fill:#FFFFFF;" d="M336.144,456H175.856c-17.032,0-30.96-13.936-30.96-30.96V86.96c0-17.032,13.936-30.96,30.96-30.96
	h160.288c17.032,0,30.96,13.936,30.96,30.96v338.08C367.104,442.064,353.176,456,336.144,456z"/>
<rect x="159.552" y="87.568" style="fill:#DB2B42;" width="192.88" height="315.44"/>
<g>
	<path style="fill:#CCCCCC;" d="M284.928,75.08h-39.48c-1.776,0-3.224-1.448-3.224-3.224l0,0c0-1.776,1.448-3.224,3.224-3.224h39.48
		c1.776,0,3.224,1.448,3.224,3.224l0,0C288.152,73.632,286.704,75.08,284.928,75.08z"/>
	<circle style="fill:#CCCCCC;" cx="227.072" cy="71.856" r="3.224"/>
	<path style="fill:#CCCCCC;" d="M256,445.168c-8.648,0-15.688-7.04-15.688-15.696c0-8.648,7.04-15.688,15.688-15.688
		s15.688,7.04,15.688,15.688C271.688,438.128,264.648,445.168,256,445.168z M256,417.784c-6.448,0-11.688,5.24-11.688,11.688
		s5.24,11.696,11.688,11.696s11.688-5.248,11.688-11.696S262.448,417.784,256,417.784z"/>
</g>
<rect x="159.424" y="263.536" style="fill:#2D2D2D;" width="192.88" height="139.432"/>
<rect x="176.64" y="285.912" style="fill:#DB2B42;" width="158.392" height="4.6"/>
<g>
	<rect x="176.64" y="301.432" style="fill:#CCCCCC;" width="158.392" height="4.6"/>
	<rect x="176.64" y="313.28" style="fill:#CCCCCC;" width="158.392" height="4.6"/>
	<rect x="176.64" y="325.184" style="fill:#CCCCCC;" width="158.392" height="4.6"/>
	<rect x="176.64" y="337.04" style="fill:#CCCCCC;" width="158.392" height="4.6"/>
	<rect x="176.64" y="348.944" style="fill:#CCCCCC;" width="158.392" height="4.6"/>
</g>
<path style="fill:#FFFFFF;" d="M251.592,232.256V219.16c-7.52-0.136-15.296-2.464-19.832-5.704l3.104-8.688
	c4.664,3.112,11.408,5.576,18.672,5.576c9.208,0,15.424-5.312,15.424-12.704c0-7.128-5.056-11.536-14.648-15.424
	c-13.224-5.192-21.392-11.152-21.392-22.424c0-10.76,7.648-18.928,19.576-20.872v-13.088h8.032V138.4
	c7.776,0.256,13.096,2.336,16.856,4.536l-3.248,8.552c-2.72-1.56-8.04-4.408-16.336-4.408c-9.984,0-13.736,5.96-13.736,11.144
	c0,6.744,4.8,10.112,16.072,14.784c13.352,5.44,20.088,12.184,20.088,23.72c0,10.24-7.128,19.832-20.48,22.032v13.488h-8.152
	V232.256z"/>
<rect x="218.504" y="375.92" style="fill:#CCCCCC;" width="75" height="4.6"/>
<g>
</g>
<g>
</g>
<g>
</g>
<g>
</g>
<g>
</g>
<g>
</g>
<g>
</g>
<g>
</g>
<g>
</g>
<g>
</g>
<g>
</g>
<g>
</g>
<g>
</g>
<g>
</g>
<g>
</g>
</svg>
